<svg xmlns="http://www.w3.org/2000/svg" viewBox="0 0 200 200" width="200" height="200">
<defs><clipPath id="ic"><path d="M90 30 h20 v6 c0 14 18 22 18 40 v94 q0 12 -12 12 h-32 q-12 0 -12 -12 v-94 c0 -18 18 -26 18 -40 z"/></clipPath></defs>
<ellipse cx="100" cy="188" rx="48" ry="6" fill="#000" opacity=".3"/>
<path d="M90 30 h20 v6 c0 14 18 22 18 40 v94 q0 12 -12 12 h-32 q-12 0 -12 -12 v-94 c0 -18 18 -26 18 -40 z" fill="#b8832a"/>
<rect x="87" y="14" width="26" height="18" rx="3" fill="#f2c200"/>
<rect x="87" y="26" width="26" height="4" fill="#000" opacity=".2"/>
<g clip-path="url(#ic)">
  <rect x="60" y="98" width="80" height="50" fill="#ffe14d"/><ellipse cx="126" cy="104" rx="9" ry="6" fill="#ffd000" stroke="#e0a800" stroke-width="2"/>
  <text x="100" y="120" text-anchor="middle" font-family="Arial Black,Arial,sans-serif" font-weight="900" font-size="12" fill="#6b4a00">ISTE</text><text x="100" y="139" text-anchor="middle" font-family="Arial Black,Arial,sans-serif" font-weight="900" font-size="11" fill="#6b4a00">CITRON</text>
</g>
<path d="M80 80 q-2 4 -2 10 v74 q0 4 3 4" stroke="#fff" stroke-opacity=".35" stroke-width="5" fill="none" stroke-linecap="round"/>
</svg>
