<svg xmlns="http://www.w3.org/2000/svg" viewBox="0 0 200 200" width="200" height="200">
<defs><clipPath id="mw"><path d="M68 30 q0 -8 8 -8 h48 q8 0 8 8 v146 q0 6 -8 6 h-48 q-8 0 -8 -6z"/></clipPath></defs>
<ellipse cx="100" cy="188" rx="48" ry="6" fill="#000" opacity=".3"/>
<path d="M68 30 q0 -8 8 -8 h48 q8 0 8 8 v146 q0 6 -8 6 h-48 q-8 0 -8 -6z" fill="#eef1f4"/>
<g clip-path="url(#mw)"><g fill="none" stroke="#b8c4cf" stroke-width="6" stroke-linejoin="miter" stroke-linecap="square">
  <path d="M82 58 L86 92 L80 97 L87 140"/><path d="M100 54 L102 90 L96 96 L101 144"/><path d="M118 58 L115 92 L121 97 L113 140"/></g>
<text x="100" y="158" text-anchor="middle" font-family="Arial Black,Arial,sans-serif" font-weight="900" font-size="12" fill="#2b2f36">ULTRA</text>
<text x="100" y="171" text-anchor="middle" font-family="Arial,sans-serif" font-weight="900" font-size="7" fill="#7a8794">ZERO SUGAR</text></g>
<ellipse cx="100" cy="24" rx="28" ry="5" fill="#d7dde3" stroke="#9aa3ab" stroke-width="1.5"/>
<ellipse cx="104" cy="23" rx="6" ry="2" fill="#8d969e"/>
<rect x="74" y="34" width="5" height="140" rx="2.5" fill="#fff" opacity=".22"/>
</svg>
