<svg xmlns="http://www.w3.org/2000/svg" viewBox="0 0 200 200" width="200" height="200">
<defs><clipPath id="tp"><path d="M44 96 c0 -26 14 -38 30 -38 c10 -12 42 -12 52 0 c16 0 30 12 30 38 v60 q0 10 -10 10 h-92 q-10 0 -10 -10 z"/></clipPath></defs>
<ellipse cx="100" cy="188" rx="48" ry="6" fill="#000" opacity=".3"/>
<path d="M44 96 c0 -26 14 -38 30 -38 c10 -12 42 -12 52 0 c16 0 30 12 30 38 v60 q0 10 -10 10 h-92 q-10 0 -10 -10 z" transform="translate(6 10)" fill="#b8742f"/>
<path d="M44 96 c0 -26 14 -38 30 -38 c10 -12 42 -12 52 0 c16 0 30 12 30 38 v60 q0 10 -10 10 h-92 q-10 0 -10 -10 z" transform="translate(100 112) scale(1.07) translate(-100 -110)" fill="#ffd23f"/><circle cx="36" cy="138" r="13" fill="#c0392b" stroke="#8a1f16" stroke-width="2"/><circle cx="32" cy="135" r="2" fill="#7a1a14"/><circle cx="164" cy="126" r="13" fill="#c0392b" stroke="#8a1f16" stroke-width="2"/><circle cx="160" cy="123" r="2" fill="#7a1a14"/><circle cx="62" cy="176" r="13" fill="#c0392b" stroke="#8a1f16" stroke-width="2"/><circle cx="58" cy="173" r="2" fill="#7a1a14"/><circle cx="138" cy="176" r="13" fill="#c0392b" stroke="#8a1f16" stroke-width="2"/><circle cx="134" cy="173" r="2" fill="#7a1a14"/><circle cx="100" cy="184" r="13" fill="#c0392b" stroke="#8a1f16" stroke-width="2"/><circle cx="96" cy="181" r="2" fill="#7a1a14"/><circle cx="38" cy="104" r="13" fill="#c0392b" stroke="#8a1f16" stroke-width="2"/><circle cx="34" cy="101" r="2" fill="#7a1a14"/><circle cx="166" cy="92" r="13" fill="#c0392b" stroke="#8a1f16" stroke-width="2"/><circle cx="162" cy="89" r="2" fill="#7a1a14"/>
<path d="M44 96 c0 -26 14 -38 30 -38 c10 -12 42 -12 52 0 c16 0 30 12 30 38 v60 q0 10 -10 10 h-92 q-10 0 -10 -10 z" fill="#f0b85f" stroke="#a8632a" stroke-width="5"/>
<g clip-path="url(#tp)" stroke="#a8632a" stroke-width="5" opacity=".75"><path d="M40 100 l60 -60 M40 130 l90 -90 M50 150 l100 -100 M80 160 l80 -80 M110 165 l60 -60"/></g>
</svg>
